<?xml version="1.0" encoding="utf-8"?>
<svg viewBox="-32.409 -122.761 707.221 630.618" xmlns="http://www.w3.org/2000/svg">
  <g stroke-width="2.00" fill="none" stroke-linecap="butt" transform="matrix(1, 0, 0, 1, -191.41506958007812, -326.96063232421875)">
    <path stroke="#967c42" d=" M 539.00 301.58 L 548.33 305.07"/>
    <path stroke="#bdc496" d=" M 548.33 305.07 Q 548.62 306.57 547.49 306.75 Q 535.98 308.60 527.51 310.82 C 516.54 313.68 505.79 318.92 495.74 323.98 C 480.59 331.61 466.43 343.46 454.37 356.08 Q 434.47 376.89 423.14 396.89 Q 411.76 416.98 407.75 426.75 Q 406.11 430.76 405.34 432.17"/>
    <path stroke="#ebb543" d=" M 405.34 432.17 C 403.95 434.59 402.96 436.94 401.18 439.03 C 396.30 444.72 390.72 450.33 386.41 456.23 Q 374.39 472.67 368.74 493.95 Q 365.91 504.61 365.02 513.44 Q 362.64 536.88 367.08 558.63 Q 370.80 576.87 380.07 591.44 Q 390.13 607.23 407.50 616.99"/>
    <path stroke="#bdc496" d=" M 407.50 616.99 Q 416.34 639.04 426.67 655.02 Q 444.36 682.39 473.04 704.50 Q 506.90 730.60 549.29 732.07 A 1.28 1.28 0.0 0 1 550.53 733.36 Q 550.52 734.82 549.32 736.17"/>
    <path stroke="#967c42" d=" M 549.32 736.17 L 542.03 739.87"/>
    <path stroke="#967c42" d=" M 485.66 739.85 Q 464.15 735.79 450.25 730.80 Q 434.57 725.15 421.81 719.06 C 386.36 702.12 356.13 675.70 333.58 643.49 C 310.16 610.05 298.08 569.86 296.02 528.82 Q 295.52 518.84 296.22 508.91 Q 299.26 465.80 318.55 427.58 Q 322.97 418.81 328.30 409.80 Q 344.44 382.52 368.97 359.66 Q 403.66 327.34 447.76 312.27 Q 464.60 306.52 484.49 302.21"/>
    <path stroke="#57798d" d=" M 549.32 736.17 Q 595.96 729.24 636.46 704.91 Q 665.75 687.31 686.99 663.36 Q 725.16 620.29 738.28 562.36 Q 740.54 552.38 741.61 542.60 C 746.74 495.69 736.04 450.03 711.57 409.81 Q 680.46 358.66 627.73 330.32 Q 612.57 322.17 589.00 314.71 Q 566.32 307.53 548.33 305.07"/>
    <path stroke="#acb18e" d=" M 407.50 616.99 Q 404.08 607.65 402.11 600.99 Q 399.40 591.78 395.54 576.75 Q 392.77 565.93 391.70 554.98"/>
    <path stroke="#b8daeb" d=" M 391.70 554.98 C 393.08 559.51 394.25 563.88 396.10 568.20 Q 400.27 577.98 405.12 586.86 Q 410.41 596.54 416.32 603.37 Q 427.76 616.59 440.23 626.18 C 454.79 637.39 471.68 644.36 490.37 648.89 Q 504.02 652.21 518.43 652.15 C 534.34 652.09 549.53 649.98 564.28 644.34 Q 573.92 640.65 582.88 636.00 Q 613.56 620.03 632.49 588.95 Q 643.73 570.50 648.18 549.93 Q 656.33 512.27 642.80 475.59 Q 636.81 459.32 625.67 444.13 Q 602.45 412.45 564.51 399.11 Q 539.13 390.19 514.11 391.62 Q 461.23 394.63 424.79 431.52 Q 418.07 438.33 412.18 446.90 Q 403.61 459.36 397.28 473.37"/>
    <path stroke="#acb18e" d=" M 397.28 473.37 Q 400.04 457.97 403.28 442.95 Q 403.29 442.87 404.64 438.14 Q 405.48 435.17 405.34 432.17"/>
    <path stroke="#e6cb98" d=" M 391.70 554.98 Q 382.68 520.46 392.81 485.50 Q 394.99 477.99 397.28 473.37"/>
  </g>
  <path fill="#fbc74b" d="M 347.585 -25.381 L 356.915 -21.891 C 357.108 -20.891 356.828 -20.331 356.075 -20.211 C 348.402 -18.977 341.742 -17.621 336.095 -16.141 C 325.125 -13.281 314.375 -8.041 304.325 -2.981 C 289.175 4.649 275.015 16.499 262.955 29.119 C 249.688 42.993 239.278 56.596 231.725 69.929 C 224.138 83.323 219.008 93.276 216.335 99.789 C 215.242 102.463 214.438 104.269 213.925 105.209 C 212.535 107.629 211.545 109.979 209.765 112.069 C 204.885 117.759 199.305 123.369 194.995 129.269 C 186.982 140.229 181.092 152.803 177.325 166.989 C 175.438 174.096 174.198 180.593 173.605 186.479 C 172.018 202.106 172.705 217.169 175.665 231.669 C 178.145 243.829 182.475 254.766 188.655 264.479 C 195.362 275.006 204.505 283.523 216.085 290.029 C 221.978 304.729 228.368 317.406 235.255 328.059 C 247.048 346.306 262.505 362.799 281.625 377.539 C 304.198 394.939 329.615 404.129 357.875 405.109 C 358.57 405.131 359.121 405.704 359.115 406.399 C 359.108 407.373 358.705 408.309 357.905 409.209 L 350.615 412.909 C 331.655 413.669 312.865 413.663 294.245 412.889 C 279.905 410.183 268.102 407.166 258.835 403.839 C 248.382 400.073 238.902 396.159 230.395 392.099 C 194.945 375.159 164.715 348.739 142.165 316.529 C 118.745 283.089 106.665 242.899 104.605 201.859 C 104.272 195.206 104.338 188.569 104.805 181.949 C 106.832 153.209 114.275 126.099 127.135 100.619 C 130.082 94.773 133.332 88.846 136.885 82.839 C 147.645 64.653 161.202 47.939 177.555 32.699 C 200.682 11.153 226.945 -4.644 256.345 -14.691 C 267.572 -18.524 279.815 -21.877 293.075 -24.751 C 305.128 -25.724 317.382 -26.211 329.835 -26.211 C 335.808 -26.211 341.725 -25.934 347.585 -25.381 Z"/>
  <path fill="#303139" d="M 293.075 -24.751 C 279.815 -21.877 267.572 -18.524 256.345 -14.691 C 226.945 -4.644 200.682 11.153 177.555 32.699 C 161.202 47.939 147.645 64.653 136.885 82.839 C 133.332 88.846 130.082 94.773 127.135 100.619 C 114.275 126.099 106.832 153.209 104.805 181.949 C 104.338 188.569 104.272 195.206 104.605 201.859 C 106.665 242.899 118.745 283.089 142.165 316.529 C 164.715 348.739 194.945 375.159 230.395 392.099 C 238.902 396.159 248.382 400.073 258.835 403.839 C 268.102 407.166 279.905 410.183 294.245 412.889 C 271.265 413.463 253.128 413.709 239.835 413.629 C 191.408 413.329 142.158 413.236 92.085 413.349 C 70.195 413.409 50.865 394.429 46.465 373.719 C 45.852 370.819 45.545 367.386 45.545 363.419 C 45.558 254.653 45.518 145.379 45.425 35.599 C 45.418 32.179 45.465 28.649 45.565 25.009 C 45.835 15.289 49.025 6.059 54.155 -1.981 C 62.415 -14.921 73.892 -22.504 88.585 -24.731 C 93.445 -25.471 99.375 -25.331 104.585 -25.341 C 160.792 -25.501 216.858 -25.427 272.785 -25.121 C 272.845 -25.121 275.708 -25.174 281.375 -25.281 C 285.242 -25.354 289.142 -25.177 293.075 -24.751 Z"/>
  <path fill="#303139" d="M 350.615 412.909 L 357.905 409.209 C 388.998 404.589 418.045 394.169 445.045 377.949 C 464.572 366.216 481.415 352.366 495.575 336.399 C 521.022 307.686 538.118 274.019 546.865 235.399 C 548.372 228.746 549.482 222.159 550.195 215.639 C 555.325 168.729 544.625 123.069 520.155 82.849 C 499.415 48.749 471.468 22.253 436.315 3.359 C 426.208 -2.074 413.298 -7.277 397.585 -12.251 C 382.465 -17.037 368.908 -20.251 356.915 -21.891 L 347.585 -25.381 C 431.985 -25.161 497.235 -25.174 543.335 -25.421 C 558.295 -25.501 570.548 -20.811 580.095 -11.351 C 583.802 -7.677 586.825 -3.721 589.165 0.519 C 592.725 6.959 595.875 14.559 595.875 21.849 C 595.735 130.649 595.748 243.749 595.915 361.149 C 595.928 367.663 595.472 372.653 594.545 376.119 C 589.535 394.979 576.005 408.239 557.235 412.099 C 553.408 412.886 546.775 413.279 537.335 413.279 C 481.428 413.306 426.012 413.353 371.085 413.419 C 362.878 413.433 356.055 413.263 350.615 412.909 Z"/>
  <path fill="#7ec0e1" d="M 357.905 409.209 C 358.705 408.309 359.108 407.373 359.115 406.399 C 359.121 405.704 358.57 405.131 357.875 405.109 C 329.615 404.129 304.198 394.939 281.625 377.539 C 262.505 362.799 247.048 346.306 235.255 328.059 C 228.368 317.406 221.978 304.729 216.085 290.029 C 213.805 283.803 212.008 278.469 210.695 274.029 C 208.888 267.889 206.698 259.809 204.125 249.789 C 202.278 242.576 200.998 235.319 200.285 228.019 C 201.665 232.549 202.835 236.919 204.685 241.239 C 207.465 247.759 210.472 253.979 213.705 259.899 C 217.232 266.353 220.965 271.856 224.905 276.409 C 232.532 285.223 240.502 292.826 248.815 299.219 C 263.375 310.429 280.265 317.399 298.955 321.929 C 308.055 324.143 317.408 325.229 327.015 325.189 C 342.925 325.129 358.115 323.019 372.865 317.379 C 379.292 314.919 385.492 312.139 391.465 309.039 C 411.918 298.393 428.455 282.709 441.075 261.989 C 448.568 249.689 453.798 236.683 456.765 222.969 C 462.198 197.863 460.405 173.083 451.385 148.629 C 447.392 137.783 441.682 127.296 434.255 117.169 C 418.775 96.049 398.388 81.043 373.095 72.149 C 356.175 66.203 339.375 63.706 322.695 64.659 C 287.442 66.666 257.668 79.966 233.375 104.559 C 228.895 109.099 224.692 114.226 220.765 119.939 C 215.052 128.246 210.085 137.069 205.865 146.409 C 207.705 136.143 209.705 126.003 211.865 115.989 C 211.872 115.936 212.325 114.333 213.225 111.179 C 213.785 109.199 214.018 107.209 213.925 105.209 C 214.438 104.269 215.242 102.463 216.335 99.789 C 219.008 93.276 224.138 83.323 231.725 69.929 C 239.278 56.596 249.688 42.993 262.955 29.119 C 275.015 16.499 289.175 4.649 304.325 -2.981 C 314.375 -8.041 325.125 -13.281 336.095 -16.141 C 341.742 -17.621 348.402 -18.977 356.075 -20.211 C 356.828 -20.331 357.108 -20.891 356.915 -21.891 C 368.908 -20.251 382.465 -17.037 397.585 -12.251 C 413.298 -7.277 426.208 -2.074 436.315 3.359 C 471.468 22.253 499.415 48.749 520.155 82.849 C 544.625 123.069 555.325 168.729 550.195 215.639 C 549.482 222.159 548.372 228.746 546.865 235.399 C 538.118 274.019 521.022 307.686 495.575 336.399 C 481.415 352.366 464.572 366.216 445.045 377.949 C 418.045 394.169 388.998 404.589 357.905 409.209 Z"/>
  <path fill="#7ec0e1" d="M 560.19 40.855 C 552.608 49.455 539.277 50.094 530.416 42.282 C 521.555 34.469 520.518 21.164 528.1 12.564 C 535.682 3.964 549.012 3.325 557.874 11.137 C 566.735 18.949 567.772 32.255 560.19 40.855 Z"/>
  <path fill="#fbc74b" d="M 119.845 35.643 C 115.197 46.281 102.551 51.026 91.6 46.241 C 80.648 41.457 75.537 28.954 80.185 18.316 C 84.833 7.678 97.478 2.933 108.43 7.717 C 119.382 12.502 124.493 25.005 119.845 35.643 L 119.845 35.643 Z"/>
  <path fill="#f1f3f4" d="M 200.285 228.019 C 194.272 205.006 194.642 181.846 201.395 158.539 C 202.848 153.533 204.338 149.489 205.865 146.409 C 210.085 137.069 215.052 128.246 220.765 119.939 C 224.692 114.226 228.895 109.099 233.375 104.559 C 257.668 79.966 287.442 66.666 322.695 64.659 C 339.375 63.706 356.175 66.203 373.095 72.149 C 398.388 81.043 418.775 96.049 434.255 117.169 C 441.682 127.296 447.392 137.783 451.385 148.629 C 460.405 173.083 462.198 197.863 456.765 222.969 C 453.798 236.683 448.568 249.689 441.075 261.989 C 428.455 282.709 411.918 298.393 391.465 309.039 C 385.492 312.139 379.292 314.919 372.865 317.379 C 358.115 323.019 342.925 325.129 327.015 325.189 C 317.408 325.229 308.055 324.143 298.955 321.929 C 280.265 317.399 263.375 310.429 248.815 299.219 C 240.502 292.826 232.532 285.223 224.905 276.409 C 220.965 271.856 217.232 266.353 213.705 259.899 C 210.472 253.979 207.465 247.759 204.685 241.239 C 202.835 236.919 201.665 232.549 200.285 228.019 Z"/>
  <path fill="#303139" d="M 377.155 96.699 C 400.165 108.029 418.875 126.719 428.935 150.529 C 444.125 186.509 440.365 227.499 416.805 259.169 C 401.865 279.249 382.358 292.803 358.285 299.829 C 351.945 301.683 345.385 302.899 338.605 303.479 C 302.345 306.559 267.075 292.189 243.575 264.069 C 230.962 248.983 222.985 231.049 219.645 210.269 C 213.885 174.429 227.595 139.529 254.235 114.479 C 272.395 97.409 297.505 86.879 322.975 85.579 C 342.068 84.599 360.128 88.306 377.155 96.699 Z"/>
  <path fill="#daa23b" d="M 213.925 105.209 C 214.018 107.209 213.785 109.199 213.225 111.179 C 212.325 114.333 211.872 115.936 211.865 115.989 C 209.705 126.003 207.705 136.143 205.865 146.409 C 204.338 149.489 202.848 153.533 201.395 158.539 C 194.642 181.846 194.272 205.006 200.285 228.019 C 200.998 235.319 202.278 242.576 204.125 249.789 C 206.698 259.809 208.888 267.889 210.695 274.029 C 212.008 278.469 213.805 283.803 216.085 290.029 C 204.505 283.523 195.362 275.006 188.655 264.479 C 182.475 254.766 178.145 243.829 175.665 231.669 C 172.705 217.169 172.018 202.106 173.605 186.479 C 174.198 180.593 175.438 174.096 177.325 166.989 C 181.092 152.803 186.982 140.229 194.995 129.269 C 199.305 123.369 204.885 117.759 209.765 112.069 C 211.545 109.979 212.535 107.629 213.925 105.209 Z"/>
  <path fill="#4a4d55" d="M 260.595 246.159 C 258.182 243.226 256.135 240.166 254.455 236.979 C 244.555 218.213 241.288 199.346 244.655 180.379 C 247.348 165.179 253.845 151.206 264.145 138.459 C 267.098 134.806 271.365 130.959 276.945 126.919 C 281.472 123.646 286.865 120.476 293.125 117.409 C 301.798 113.163 310.948 110.596 320.575 109.709 C 340.308 107.889 358.645 112.363 375.585 123.129 C 381.752 127.043 387.215 131.723 391.975 137.169 C 400.148 146.516 406.122 156.616 409.895 167.469 C 413.542 177.956 414.845 188.933 413.805 200.399 C 412.212 217.899 406.442 232.729 396.495 244.889 C 392.595 249.656 388.965 253.656 385.605 256.889 C 383.325 259.083 379.972 261.799 375.545 265.039 C 371.998 267.639 368.155 269.826 364.015 271.599 C 348.795 278.119 333.038 280.449 316.745 278.589 C 309.498 277.763 303.145 276.246 297.685 274.039 C 283.625 268.359 271.998 260.109 262.805 249.289 C 262.352 248.756 261.952 248.193 261.605 247.599 C 261.312 247.099 260.975 246.619 260.595 246.159 Z"/>
  <g stroke-width="2.00" fill="none" stroke-linecap="butt" transform="matrix(1, 0, 0, 1, -191.41506958007812, -326.96063232421875)">
    <path stroke="#3f5568" d=" M 586.62 559.26 L 590.97 549.96"/>
    <path stroke="#353840" d=" M 590.97 549.96 Q 591.81 548.39 592.49 546.78 Q 593.12 545.31 593.53 543.48 Q 593.94 541.71 594.54 539.80 Q 595.62 536.35 596.50 532.33 Q 597.31 528.61 597.51 524.73 Q 598.54 503.87 588.97 485.69 Q 587.58 483.05 585.78 480.67 Q 584.09 478.45 582.52 475.89 Q 581.54 474.31 580.17 472.78 Q 578.79 471.27 577.61 469.72 Q 576.51 468.30 575.06 467.40 Q 573.57 466.48 572.41 465.14 Q 572.07 464.75 571.56 464.63 Q 570.41 464.37 569.52 463.58 Q 568.54 462.71 567.45 461.92 Q 561.48 457.60 556.66 454.68 Q 551.23 451.40 541.86 448.45 Q 534.63 446.17 526.62 445.73 Q 523.23 445.55 519.51 445.48 Q 508.04 445.28 496.25 448.38 Q 488.45 450.43 479.48 455.42"/>
    <path stroke="#282a32" d=" M 479.48 455.42 Q 478.18 455.82 477.13 456.71 Q 476.90 456.91 476.60 456.94 Q 476.42 456.96 476.24 456.90 Q 475.41 456.66 476.22 456.38 Q 477.43 455.96 478.12 454.87 Q 478.39 454.43 478.86 454.23 Q 479.87 453.79 479.90 453.05"/>
    <path stroke="#466b83" d=" M 499.98 594.70 L 512.72 596.59"/>
    <path stroke="#556b7d" d=" M 590.97 549.96 Q 593.46 542.08 595.42 534.11 Q 595.61 533.33 595.65 532.62 Q 595.85 528.89 594.64 531.33"/>
    <path stroke="#3f5f74" d=" M 594.64 531.33 Q 594.52 531.17 594.40 531.00"/>
    <path stroke="#3b4d5b" d=" M 594.40 531.00 L 595.20 523.18"/>
    <path stroke="#3d3f47" d=" M 595.20 523.18 Q 595.07 512.97 592.52 502.99 Q 591.62 499.49 588.84 491.95 Q 586.42 485.42 583.55 481.15 Q 573.56 466.32 559.96 458.04 Q 542.98 447.71 523.13 447.21 Q 516.39 447.05 508.02 447.74 Q 503.79 448.09 500.22 449.11 Q 496.18 450.25 492.36 451.33 C 491.07 451.69 490.36 452.44 489.23 452.87 Q 487.59 453.49 486.90 453.90 Q 485.11 454.98 483.17 455.83"/>
    <path stroke="#3b4d5b" d=" M 483.17 455.83 L 474.00 460.77 Q 473.60 460.99 473.31 461.35 Q 472.41 462.47 471.18 463.22 Q 470.00 463.93 468.79 464.82 Q 467.21 465.98 465.34 466.19"/>
    <path stroke="#3d3f47" d=" M 465.34 466.19 L 479.48 455.42"/>
    <path stroke="#2e3f4d" d=" M 465.34 466.19 Q 460.26 471.12 456.15 476.98 Q 455.24 478.28 454.13 481.05 Q 453.27 483.17 451.92 485.09 Q 451.65 485.47 451.60 485.93 Q 451.37 488.06 450.55 489.95 Q 449.65 492.00 450.59 494.00 Q 451.09 495.06 450.27 499.80 Q 449.76 502.80 450.96 507.65 Q 451.27 508.93 452.17 509.84 Q 453.02 510.69 453.81 511.52 A 2.12 2.02 76.5 0 0 454.60 512.03 Q 455.96 512.51 456.88 513.67 Q 457.20 514.08 457.71 514.10 Q 458.22 514.13 458.34 514.64 C 459.47 515.44 460.23 516.56 461.39 517.25 Q 462.99 518.19 464.81 519.56"/>
    <path stroke="#282a32" d=" M 464.81 519.56 Q 464.86 524.82 464.95 530.75 Q 464.95 531.02 464.76 531.23 A 0.66 0.65 -23.5 0 0 464.58 531.68 Q 464.58 540.38 468.78 549.84 Q 472.34 557.84 478.74 563.84 Q 479.39 564.45 480.10 564.91 Q 480.98 565.49 481.74 566.25 Q 482.78 567.30 484.04 568.20 Q 485.61 569.31 487.08 570.67"/>
    <path stroke="#2e3f4d" d=" M 487.08 570.67 L 484.84 569.76 Q 484.50 569.62 484.20 569.84 Q 483.94 570.03 484.18 570.27 Q 484.63 570.72 483.99 570.68 Q 483.56 570.65 483.31 571.07 Q 483.03 571.52 483.35 571.96 Q 483.91 572.73 483.53 573.60 Q 483.13 574.53 482.90 575.55 Q 482.79 576.07 482.38 576.40 Q 481.73 576.92 481.12 577.37 Q 480.44 577.87 479.80 577.36 Q 479.20 576.88 478.98 577.62 C 478.71 578.53 479.10 579.71 479.96 580.25 Q 484.80 583.33 489.43 585.35 Q 490.64 585.88 491.09 587.08 Q 491.26 587.54 490.79 587.67 L 489.30 588.10 Q 488.73 588.27 488.72 588.86 Q 488.72 589.44 488.25 589.75 Q 487.80 590.05 487.38 589.72 Q 487.16 589.55 486.83 589.62 Q 486.33 589.74 486.79 589.98 Q 493.04 593.17 499.98 594.70"/>
    <path stroke="#485d6f" d=" M 499.98 594.70 Q 499.82 594.70 499.68 594.71 Q 499.33 594.73 499.19 595.05 L 498.93 595.69"/>
    <path stroke="#282a32" d=" M 498.93 595.69 Q 476.99 589.31 461.58 573.00 Q 453.98 564.95 450.13 556.80 Q 445.54 547.10 444.33 536.64 Q 443.84 532.44 443.21 528.51 Q 442.60 524.66 442.61 517.19 Q 442.61 515.45 443.04 513.92 Q 443.43 512.49 443.37 511.01 Q 443.27 508.75 443.84 506.55 Q 444.99 502.15 445.05 497.38 Q 445.06 496.92 445.30 496.54 Q 446.28 494.95 446.47 493.40 Q 446.66 491.88 447.23 490.65 Q 448.22 488.55 449.11 486.46 Q 449.30 486.02 449.71 485.76 Q 450.22 485.44 450.19 484.81 Q 450.17 484.12 449.59 484.49 L 448.94 484.92"/>
    <path stroke="#497c9c" d=" M 594.64 531.33 Q 594.25 536.59 592.40 541.67 C 592.11 542.45 592.31 543.36 591.86 544.04 Q 591.37 544.75 591.10 545.58 Q 588.71 552.83 584.31 558.78 Q 584.15 559.00 584.11 559.28 Q 584.09 559.45 584.11 559.62 Q 584.16 560.03 583.94 560.37 Q 581.90 563.51 579.95 566.02 Q 578.40 568.01 575.34 570.36 Q 574.22 571.22 573.41 572.19 C 572.90 572.81 572.04 573.95 571.40 574.30 Q 571.24 574.38 571.07 574.37 Q 570.58 574.34 570.26 574.70 L 568.05 577.11 Q 567.68 577.51 567.16 577.72 C 566.15 578.12 565.92 578.23 565.09 579.05 Q 563.26 580.87 560.59 582.17 Q 560.14 582.39 559.82 582.78 C 558.69 584.16 557.09 584.59 555.76 585.71 Q 551.13 589.60 546.64 591.48 Q 541.12 593.79 535.85 594.81 Q 529.85 595.98 523.26 596.87 Q 520.73 597.20 512.72 596.59"/>
    <path stroke="#305f7a" d=" M 512.72 596.59 Q 514.79 596.58 516.83 595.67 Q 517.28 595.47 517.34 594.98 Q 517.57 593.29 516.25 592.15 Q 515.33 591.35 513.76 591.17 Q 506.67 590.36 499.88 588.63 Q 499.42 588.51 499.20 588.09 Q 498.86 587.43 499.47 586.86 Q 499.81 586.54 499.67 586.10 Q 499.38 585.13 500.13 584.61 Q 501.48 583.66 502.16 582.51 Q 503.29 580.62 503.73 580.26 Q 505.00 579.23 506.29 578.92"/>
    <path stroke="#497c9c" d=" M 547.30 572.00 L 546.03 574.11 Q 545.74 574.58 545.19 574.58 Q 544.56 574.58 544.10 575.01 A 4.95 4.94 -67.7 0 1 540.84 576.38 Q 539.74 576.42 538.97 577.27 Q 538.57 577.71 537.98 577.68 Q 537.23 577.63 536.76 578.22 Q 536.49 578.56 536.23 578.21 Q 536.11 578.05 535.85 578.13 Q 535.44 578.27 535.27 578.66 Q 533.31 583.16 530.33 587.41 Q 530.09 587.76 530.18 588.18 Q 530.26 588.56 530.16 588.93 Q 530.12 589.10 529.96 589.03 Q 529.73 588.94 529.69 589.16 Q 529.62 589.50 529.96 589.41 C 530.97 589.16 532.00 589.21 532.98 588.91 Q 539.35 586.96 544.30 584.80 Q 547.08 583.59 550.07 582.17 Q 552.89 580.83 555.25 578.99 Q 558.62 576.37 561.65 573.80 Q 567.08 569.17 570.65 563.21 Q 570.92 562.76 570.92 562.26 Q 570.91 561.73 570.63 561.25 A 0.88 0.87 66.4 0 0 569.62 560.85 Q 567.93 561.34 567.46 559.60 A 0.11 0.11 0.0 0 0 567.28 559.55 L 567.04 559.79 Q 566.59 560.24 566.16 559.77 Q 564.69 558.20 561.71 560.06"/>
    <path stroke="#3f5568" d=" M 498.93 595.69 Q 520.39 600.93 541.00 595.24"/>
    <path stroke="#466b83" d=" M 501.86 494.00 Q 502.04 490.02 501.14 486.02 Q 500.69 484.03 499.67 482.90 Q 498.23 481.32 497.17 479.40 Q 496.77 478.68 496.21 479.28 Q 495.59 479.95 494.67 479.92 Q 494.26 479.91 494.00 479.59 Q 493.15 478.51 492.47 477.44 A 1.60 1.60 0.0 0 1 493.37 475.05 Q 495.38 474.45 494.90 471.71 Q 494.81 471.19 494.34 470.96 Q 491.89 469.76 489.63 467.80 Q 489.25 467.47 488.75 467.37 Q 488.02 467.22 487.67 466.58 Q 487.48 466.24 487.10 466.15 Q 485.60 465.79 484.71 466.80 Q 484.49 467.05 484.16 467.09 Q 482.92 467.22 481.75 467.90 Q 480.91 468.39 478.46 469.46 Q 477.96 469.68 477.41 469.64 Q 476.75 469.59 476.36 470.12 A 0.82 0.82 0.0 0 1 475.49 470.43 Q 472.73 469.70 470.16 471.30 Q 467.47 472.98 465.19 474.98 A 1.90 1.72 -11.2 0 0 464.72 475.61 Q 464.43 476.27 463.83 476.77 Q 461.92 478.34 461.18 481.05 Q 461.05 481.55 460.62 481.86 Q 460.12 482.23 460.14 482.84 C 460.20 484.28 459.37 485.97 458.97 487.33 Q 457.89 491.02 459.00 494.42 Q 459.33 495.45 459.95 496.34 Q 460.57 497.23 461.14 498.24 Q 461.40 498.71 461.55 499.22 Q 461.79 500.02 462.64 500.11 Q 463.08 500.15 463.34 500.50 L 467.93 506.55"/>
    <path stroke="#263846" d=" M 466.08 512.03 L 464.81 519.56"/>
    <path stroke="#305f7a" d=" M 594.40 531.00 Q 594.26 536.26 592.13 540.96 A 1.74 1.73 -3.7 0 1 591.45 541.73 Q 590.65 542.21 590.85 543.15 Q 590.94 543.53 590.55 543.56 L 590.29 543.57 Q 590.20 543.58 590.21 543.49 C 590.29 541.96 589.91 541.32 588.60 540.41 Q 587.72 539.80 587.15 538.84 Q 586.92 538.45 586.56 538.19 L 585.03 537.07 A 0.92 0.89 14.0 0 1 584.67 536.49 L 583.56 529.88 Q 583.49 529.45 583.12 529.21 L 582.64 528.90 A 1.13 1.10 8.2 0 1 582.18 528.30 Q 581.96 527.62 581.32 527.23 Q 580.89 526.97 580.13 527.05 Q 577.47 527.32 574.82 527.23"/>
    <path stroke="#2e3f4d" d=" M 595.20 523.18 Q 594.67 523.78 594.98 525.13 Q 595.04 525.40 594.77 525.45 L 593.88 525.62 Q 593.64 525.67 593.59 525.42 Q 593.22 523.52 592.01 522.32 Q 589.18 519.51 586.62 516.62 Q 584.24 513.92 581.74 512.26 Q 578.27 509.96 574.41 509.98"/>
    <path stroke="#282a32" d=" M 574.41 509.98 Q 573.25 501.69 568.77 492.77 Q 564.07 483.42 555.77 476.59 Q 552.90 474.24 550.42 473.02 Q 550.33 472.97 550.30 472.88 C 550.25 472.74 550.11 472.57 549.98 472.50 Q 540.12 467.11 529.74 465.51 Q 525.01 464.78 519.28 465.11 Q 517.76 465.19 516.29 465.77 Q 514.87 466.32 513.16 466.55 Q 513.07 466.56 513.14 466.51 Q 513.14 466.51 513.11 466.61 Q 513.09 466.70 513.18 466.67 Q 514.94 466.25 515.88 467.76 Q 516.77 469.18 518.40 469.80 Q 519.02 470.05 519.38 470.61 Q 520.29 472.08 521.33 473.46 Q 522.25 474.68 522.38 476.41 Q 522.53 478.54 522.99 480.52 Q 523.09 480.94 522.86 481.32 Q 520.02 485.99 516.03 488.57 Q 515.65 488.82 515.50 489.25 L 512.69 497.24 Q 512.51 497.76 512.05 497.47 Q 511.67 497.22 511.83 496.75 A 0.04 0.04 0.0 0 1 511.90 496.76 Q 512.00 497.32 511.67 497.78 Q 511.36 498.20 510.84 498.21 Q 510.20 498.22 510.15 498.88 A 1.06 1.03 -22.4 0 1 509.89 499.48 Q 508.80 500.72 507.86 502.08 Q 506.86 503.50 505.84 504.41 Q 504.42 505.66 503.07 506.83 Q 502.81 507.05 501.76 507.59 Q 501.01 507.97 500.65 508.74 A 1.29 1.29 0.0 0 1 499.87 509.42 C 497.91 510.01 496.75 511.23 494.61 511.45 Q 491.94 511.73 489.48 511.76 Q 488.98 511.76 488.66 511.39 L 488.04 510.65 A 0.43 0.42 38.8 0 0 487.34 510.72 Q 486.93 511.50 485.97 511.56 Q 485.26 511.61 484.56 511.83 Q 483.08 512.31 481.45 512.11 Q 480.87 512.04 480.49 512.50 Q 478.85 514.48 478.42 516.26 Q 477.14 521.43 475.27 525.87 A 0.82 0.81 -78.5 0 1 474.50 526.38 Q 473.02 526.37 471.69 525.58 Q 470.55 524.90 470.14 523.37 Q 469.75 521.96 469.13 520.70 Q 468.55 519.54 468.35 518.33 Q 468.13 516.98 467.15 515.73 Q 466.82 515.31 466.94 514.78 Q 467.65 511.66 466.08 512.03"/>
    <path stroke="#2e3f4d" d=" M 466.08 512.03 Q 466.41 508.26 467.93 506.55"/>
    <path stroke="#485d6f" d=" M 467.93 506.55 Q 469.92 508.29 473.90 509.80 Q 479.40 511.89 483.72 510.99 Q 497.85 508.03 501.86 494.00"/>
    <path stroke="#2e3f4d" d=" M 501.86 494.00 Q 503.36 489.93 503.72 485.49 Q 503.87 483.61 503.33 482.05 Q 501.77 477.60 499.32 472.83 A 2.03 2.03 0.0 0 1 500.21 470.09 Q 506.04 467.15 512.60 465.90 C 513.78 465.68 514.20 465.03 515.24 464.82 Q 516.06 464.66 515.39 464.15 Q 511.96 461.59 508.91 460.45 Q 506.84 459.68 504.44 459.69 C 501.87 459.69 499.27 458.66 496.93 457.68 A 45.94 14.54 37.9 0 0 492.38 455.96 Q 489.34 454.97 483.17 455.83"/>
    <path stroke="#263846" d=" M 574.41 509.98 Q 575.79 519.30 574.82 527.23"/>
    <path stroke="#29495f" d=" M 574.82 527.23 Q 572.87 545.63 561.71 560.06"/>
    <path stroke="#3f5568" d=" M 561.71 560.06 Q 555.48 567.12 547.30 572.00"/>
    <path stroke="#29495f" d=" M 547.30 572.00 C 534.64 579.44 520.69 582.58 506.29 578.92"/>
    <path stroke="#263846" d=" M 506.29 578.92 Q 496.05 576.19 487.08 570.67"/>
  </g>
  <path fill="#1f222b" d="M 395.205 232.299 L 399.555 222.999 C 400.115 221.953 400.622 220.893 401.075 219.819 C 401.495 218.839 401.842 217.739 402.115 216.519 C 402.388 215.339 402.725 214.113 403.125 212.839 C 403.845 210.539 404.498 208.049 405.085 205.369 C 405.625 202.889 405.962 200.356 406.095 197.769 C 406.782 183.863 403.935 170.849 397.555 158.729 C 396.628 156.969 395.565 155.296 394.365 153.709 C 393.238 152.229 392.152 150.636 391.105 148.929 C 390.452 147.876 389.668 146.839 388.755 145.819 C 387.835 144.813 386.982 143.793 386.195 142.759 C 385.462 141.813 384.612 141.039 383.645 140.439 C 382.652 139.826 381.768 139.073 380.995 138.179 C 380.768 137.919 380.485 137.749 380.145 137.669 C 379.378 137.496 378.698 137.146 378.105 136.619 C 377.452 136.039 376.762 135.486 376.035 134.959 C 372.055 132.079 368.458 129.666 365.245 127.719 C 361.625 125.533 356.692 123.456 350.445 121.489 C 345.625 119.969 340.545 119.063 335.205 118.769 C 332.945 118.649 330.575 118.566 328.095 118.519 C 320.448 118.386 312.695 119.353 304.835 121.419 C 299.635 122.786 294.045 125.133 288.065 128.459 C 287.198 128.726 286.415 129.156 285.715 129.749 C 285.562 129.883 285.385 129.959 285.185 129.979 C 285.065 129.993 284.945 129.979 284.825 129.939 C 284.272 129.779 284.265 129.606 284.805 129.419 C 285.612 129.139 286.245 128.636 286.705 127.909 C 286.885 127.616 287.132 127.403 287.445 127.269 C 288.118 126.976 288.465 126.583 288.485 126.089 C 292.818 123.309 296.682 121.239 300.075 119.879 C 309.055 116.286 318.998 114.383 329.905 114.169 C 331.452 114.143 333.145 114.266 334.985 114.539 C 336.865 114.819 338.708 115.013 340.515 115.119 C 342.568 115.246 344.628 115.613 346.695 116.219 C 349.405 117.009 352.215 117.309 354.845 118.299 C 358.672 119.739 362.488 121.336 366.295 123.089 C 366.415 123.143 366.538 123.179 366.665 123.199 C 366.798 123.226 366.875 123.313 366.895 123.459 C 366.914 123.583 366.997 123.689 367.115 123.739 C 370.422 125.119 373.455 127.003 376.215 129.389 C 376.602 129.723 377.032 130.013 377.505 130.259 C 377.832 130.433 378.175 130.599 378.535 130.759 C 378.868 130.913 379.172 131.106 379.445 131.339 C 382.518 133.986 385.492 136.776 388.365 139.709 C 390.485 141.879 392.065 144.219 393.945 146.589 C 394.825 147.696 395.588 148.863 396.235 150.089 C 396.895 151.343 397.635 152.456 398.455 153.429 C 398.695 153.709 398.768 154.026 398.675 154.379 C 398.588 154.713 398.708 154.909 399.035 154.969 C 399.341 155.025 399.597 155.232 399.715 155.519 C 400.002 156.213 400.312 156.879 400.645 157.519 C 400.958 158.105 401.259 158.71 401.545 159.329 C 408.745 174.976 410.935 191.183 408.115 207.949 C 407.715 210.336 407.125 212.583 406.345 214.689 C 405.832 216.063 405.395 217.476 405.035 218.929 C 404.675 220.389 404.182 221.789 403.555 223.129 C 401.962 226.543 400.215 229.763 398.315 232.789 C 397.502 234.089 396.518 235.336 395.365 236.529 C 394.685 237.236 394.422 237.106 394.575 236.139 L 395.205 232.299 Z"/>
  <path fill="#4a4d55" d="M 399.555 222.999 C 401.215 217.746 402.698 212.463 404.005 207.149 C 404.132 206.629 404.208 206.133 404.235 205.659 C 404.368 203.173 404.032 202.743 403.225 204.369 C 403.145 204.263 403.065 204.153 402.985 204.039 L 403.785 196.219 C 403.698 189.413 402.805 182.683 401.105 176.029 C 400.505 173.696 399.278 170.016 397.425 164.989 C 395.812 160.636 394.048 157.036 392.135 154.189 C 385.475 144.303 377.612 136.599 368.545 131.079 C 357.225 124.193 344.948 120.583 331.715 120.249 C 327.222 120.143 322.185 120.319 316.605 120.779 C 313.785 121.013 311.185 121.469 308.805 122.149 C 306.112 122.909 303.492 123.649 300.945 124.369 C 299.655 124.729 298.945 125.479 297.815 125.909 C 296.722 126.323 295.945 126.666 295.485 126.939 C 294.292 127.659 293.048 128.303 291.755 128.869 L 282.585 133.809 C 282.318 133.956 282.088 134.149 281.895 134.389 C 281.295 135.136 280.585 135.759 279.765 136.259 C 278.978 136.733 278.182 137.266 277.375 137.859 C 276.322 138.633 275.172 139.089 273.925 139.229 L 288.065 128.459 C 294.045 125.133 299.635 122.786 304.835 121.419 C 312.695 119.353 320.448 118.386 328.095 118.519 C 330.575 118.566 332.945 118.649 335.205 118.769 C 340.545 119.063 345.625 119.969 350.445 121.489 C 356.692 123.456 361.625 125.533 365.245 127.719 C 368.458 129.666 372.055 132.079 376.035 134.959 C 376.762 135.486 377.452 136.039 378.105 136.619 C 378.698 137.146 379.378 137.496 380.145 137.669 C 380.485 137.749 380.768 137.919 380.995 138.179 C 381.768 139.073 382.652 139.826 383.645 140.439 C 384.612 141.039 385.462 141.813 386.195 142.759 C 386.982 143.793 387.835 144.813 388.755 145.819 C 389.668 146.839 390.452 147.876 391.105 148.929 C 392.152 150.636 393.238 152.229 394.365 153.709 C 395.565 155.296 396.628 156.969 397.555 158.729 C 403.935 170.849 406.782 183.863 406.095 197.769 C 405.962 200.356 405.625 202.889 405.085 205.369 C 404.498 208.049 403.845 210.539 403.125 212.839 C 402.725 214.113 402.388 215.339 402.115 216.519 C 401.842 217.739 401.495 218.839 401.075 219.819 C 400.622 220.893 400.115 221.953 399.555 222.999 Z"/>
  <path fill="#303139" d="M 403.785 196.219 C 403.432 196.619 403.358 197.269 403.565 198.169 C 403.605 198.349 403.535 198.456 403.355 198.489 L 402.465 198.659 C 402.305 198.693 402.208 198.626 402.175 198.459 C 401.928 197.193 401.402 196.159 400.595 195.359 C 398.708 193.486 396.912 191.586 395.205 189.659 C 393.618 187.859 391.992 186.406 390.325 185.299 C 388.012 183.766 385.568 183.006 382.995 183.019 C 382.222 177.493 380.342 171.756 377.355 165.809 C 374.222 159.576 369.888 154.183 364.355 149.629 C 362.442 148.063 360.658 146.873 359.005 146.059 C 358.945 146.026 358.905 145.979 358.885 145.919 C 358.835 145.779 358.695 145.609 358.565 145.539 C 351.992 141.946 345.245 139.616 338.325 138.549 C 335.172 138.063 331.685 137.929 327.865 138.149 C 326.852 138.203 325.855 138.423 324.875 138.809 C 323.928 139.176 322.885 139.436 321.745 139.589 C 321.685 139.596 321.678 139.583 321.725 139.549 C 321.725 139.549 321.715 139.583 321.695 139.649 C 321.682 139.709 321.705 139.729 321.765 139.709 C 322.938 139.429 323.838 139.793 324.465 140.799 C 325.058 141.746 325.898 142.426 326.985 142.839 C 327.398 143.006 327.725 143.276 327.965 143.649 C 328.572 144.629 329.222 145.579 329.915 146.499 C 330.528 147.313 330.878 148.296 330.965 149.449 C 331.065 150.869 331.268 152.239 331.575 153.559 C 331.642 153.839 331.598 154.106 331.445 154.359 C 329.552 157.473 327.275 159.889 324.615 161.609 C 324.362 161.776 324.185 162.003 324.085 162.289 L 321.275 170.279 C 321.155 170.626 320.942 170.703 320.635 170.509 C 320.382 170.343 320.308 170.103 320.415 169.789 C 320.433 169.764 320.471 169.768 320.484 169.797 C 320.484 169.798 320.485 169.798 320.485 169.799 C 320.552 170.173 320.475 170.513 320.255 170.819 C 320.048 171.099 319.772 171.243 319.425 171.249 C 318.998 171.256 318.768 171.479 318.735 171.919 C 318.715 172.14 318.624 172.35 318.475 172.519 C 317.748 173.346 317.072 174.213 316.445 175.119 C 315.778 176.066 315.105 176.843 314.425 177.449 C 313.478 178.283 312.555 179.089 311.655 179.869 C 311.482 180.016 311.045 180.269 310.345 180.629 C 309.845 180.883 309.475 181.266 309.235 181.779 C 309.081 182.105 308.798 182.351 308.455 182.459 C 306.495 183.049 305.335 184.269 303.195 184.489 C 301.415 184.676 299.705 184.779 298.065 184.799 C 297.732 184.799 297.458 184.676 297.245 184.429 L 296.625 183.689 C 296.427 183.459 296.062 183.496 295.925 183.759 C 295.652 184.279 295.195 184.559 294.555 184.599 C 294.082 184.633 293.612 184.723 293.145 184.869 C 292.158 185.189 291.122 185.283 290.035 185.149 C 289.648 185.103 289.328 185.233 289.075 185.539 C 287.982 186.859 287.292 188.113 287.005 189.299 C 286.152 192.746 285.102 195.949 283.855 198.909 C 283.727 199.224 283.421 199.427 283.085 199.419 C 282.098 199.413 281.162 199.146 280.275 198.619 C 279.515 198.166 278.998 197.429 278.725 196.409 C 278.465 195.469 278.128 194.579 277.715 193.739 C 277.328 192.966 277.068 192.176 276.935 191.369 C 276.788 190.469 276.388 189.603 275.735 188.769 C 275.515 188.489 275.445 188.173 275.525 187.819 C 275.998 185.739 275.712 184.823 274.665 185.069 C 274.885 182.556 275.502 180.729 276.515 179.589 C 277.842 180.749 279.832 181.833 282.485 182.839 C 286.152 184.233 289.425 184.629 292.305 184.029 C 301.725 182.056 307.772 176.393 310.445 167.039 C 311.445 164.326 312.065 161.489 312.305 158.529 C 312.405 157.276 312.275 156.129 311.915 155.089 C 310.875 152.123 309.538 149.049 307.905 145.869 C 307.39 144.867 307.789 143.637 308.795 143.129 C 312.682 141.169 316.812 139.773 321.185 138.939 C 322.365 138.719 322.785 138.069 323.825 137.859 C 324.372 137.753 324.422 137.529 323.975 137.189 C 321.688 135.483 319.528 134.249 317.495 133.489 C 316.115 132.976 314.625 132.723 313.025 132.729 C 310.455 132.729 307.855 131.699 305.515 130.719 C 303.937 130.053 302.416 129.479 300.965 128.999 C 298.938 128.339 295.868 128.296 291.755 128.869 C 293.048 128.303 294.292 127.659 295.485 126.939 C 295.945 126.666 296.722 126.323 297.815 125.909 C 298.945 125.479 299.655 124.729 300.945 124.369 C 303.492 123.649 306.112 122.909 308.805 122.149 C 311.185 121.469 313.785 121.013 316.605 120.779 C 322.185 120.319 327.222 120.143 331.715 120.249 C 344.948 120.583 357.225 124.193 368.545 131.079 C 377.612 136.599 385.475 144.303 392.135 154.189 C 394.048 157.036 395.812 160.636 397.425 164.989 C 399.278 170.016 400.505 173.696 401.105 176.029 C 402.805 182.683 403.698 189.413 403.785 196.219 Z"/>
  <path fill="#303139" d="M 288.485 126.089 C 288.465 126.583 288.118 126.976 287.445 127.269 C 287.132 127.403 286.885 127.616 286.705 127.909 C 286.245 128.636 285.612 129.139 284.805 129.419 C 284.265 129.606 284.272 129.779 284.825 129.939 C 284.945 129.979 285.065 129.993 285.185 129.979 C 285.385 129.959 285.562 129.883 285.715 129.749 C 286.415 129.156 287.198 128.726 288.065 128.459 L 273.925 139.229 C 270.538 142.516 267.475 146.113 264.735 150.019 C 264.128 150.886 263.455 152.243 262.715 154.089 C 262.142 155.503 261.405 156.849 260.505 158.129 C 260.325 158.383 260.218 158.663 260.185 158.969 C 260.032 160.389 259.682 161.729 259.135 162.989 C 258.535 164.356 258.548 165.706 259.175 167.039 C 259.508 167.746 259.402 169.679 258.855 172.839 C 258.515 174.839 258.745 177.456 259.545 180.689 C 259.752 181.543 260.155 182.273 260.755 182.879 C 261.322 183.446 261.868 184.006 262.395 184.559 C 262.619 184.79 262.889 184.964 263.185 185.069 C 264.092 185.389 264.852 185.936 265.465 186.709 C 265.678 186.983 265.955 187.126 266.295 187.139 C 266.635 187.159 266.845 187.339 266.925 187.679 C 268.055 188.479 268.815 189.599 269.975 190.289 C 271.042 190.916 272.182 191.686 273.395 192.599 C 273.428 196.106 273.475 199.836 273.535 203.789 C 273.535 203.969 273.472 204.129 273.345 204.269 C 273.229 204.392 273.165 204.553 273.165 204.719 C 273.165 210.519 274.565 216.573 277.365 222.879 C 279.738 228.213 283.058 232.879 287.325 236.879 C 287.758 237.286 288.212 237.643 288.685 237.949 C 289.272 238.336 289.818 238.783 290.325 239.289 C 291.018 239.989 291.785 240.639 292.625 241.239 C 293.672 241.979 294.685 242.803 295.665 243.709 L 293.425 242.799 C 293.198 242.706 292.985 242.733 292.785 242.879 C 292.612 243.006 292.605 243.149 292.765 243.309 C 293.065 243.609 293.002 243.746 292.575 243.719 C 292.288 243.699 292.062 243.829 291.895 244.109 C 291.708 244.409 291.722 244.706 291.935 244.999 C 292.308 245.513 292.368 246.059 292.115 246.639 C 291.848 247.259 291.638 247.909 291.485 248.589 C 291.412 248.936 291.238 249.219 290.965 249.439 C 290.532 249.786 290.112 250.109 289.705 250.409 C 289.252 250.743 288.812 250.739 288.385 250.399 C 287.985 250.079 287.712 250.166 287.565 250.659 C 287.295 251.569 287.685 252.749 288.545 253.289 C 291.772 255.343 294.928 257.043 298.015 258.389 C 298.822 258.743 299.375 259.319 299.675 260.119 C 299.788 260.426 299.688 260.623 299.375 260.709 L 297.885 261.139 C 297.505 261.253 297.312 261.506 297.305 261.899 C 297.305 262.286 297.148 262.583 296.835 262.789 C 296.535 262.989 296.245 262.979 295.965 262.759 C 295.818 262.646 295.635 262.613 295.415 262.659 C 295.082 262.739 295.068 262.859 295.375 263.019 C 299.542 265.146 303.938 266.719 308.565 267.739 C 308.458 267.739 308.358 267.743 308.265 267.749 C 308.032 267.763 307.868 267.876 307.775 268.089 L 307.515 268.729 C 292.888 264.476 280.438 256.913 270.165 246.039 C 265.098 240.673 261.282 235.273 258.715 229.839 C 255.655 223.373 253.722 216.653 252.915 209.679 C 252.588 206.879 252.215 204.169 251.795 201.549 C 251.388 198.983 251.188 195.209 251.195 190.229 C 251.195 189.069 251.338 187.979 251.625 186.959 C 251.885 186.006 251.995 185.036 251.955 184.049 C 251.888 182.543 252.045 181.056 252.425 179.589 C 253.192 176.656 253.595 173.599 253.635 170.419 C 253.642 170.113 253.725 169.833 253.885 169.579 C 254.538 168.519 254.928 167.473 255.055 166.439 C 255.182 165.426 255.435 164.509 255.815 163.689 C 256.475 162.289 257.102 160.893 257.695 159.499 C 257.822 159.206 258.022 158.973 258.295 158.799 C 258.635 158.586 258.795 158.269 258.775 157.849 C 258.762 157.389 258.562 157.283 258.175 157.529 L 257.525 157.959 C 261.312 151.699 265.598 145.819 270.385 140.319 C 271.325 139.233 272.388 138.249 273.575 137.369 C 274.742 136.496 275.892 135.609 277.025 134.709 C 279.418 132.809 281.895 130.896 284.455 128.969 C 286.448 127.463 287.792 126.503 288.485 126.089 Z"/>
  <path fill="#2c4d61" d="M 310.445 167.039 C 310.565 164.386 310.325 161.726 309.725 159.059 C 309.425 157.733 308.935 156.693 308.255 155.939 C 307.295 154.886 306.462 153.719 305.755 152.439 C 305.488 151.959 305.168 151.919 304.795 152.319 C 304.382 152.766 303.868 152.979 303.255 152.959 C 302.982 152.953 302.758 152.843 302.585 152.629 C 302.018 151.909 301.508 151.193 301.055 150.479 C 300.487 149.581 300.936 148.39 301.955 148.089 C 303.295 147.689 303.805 146.576 303.485 144.749 C 303.425 144.403 303.238 144.153 302.925 143.999 C 301.292 143.199 299.722 142.146 298.215 140.839 C 297.962 140.619 297.668 140.476 297.335 140.409 C 296.848 140.309 296.488 140.046 296.255 139.619 C 296.128 139.393 295.938 139.249 295.685 139.189 C 294.685 138.949 293.888 139.166 293.295 139.839 C 293.148 140.006 292.965 140.103 292.745 140.129 C 291.918 140.216 291.115 140.486 290.335 140.939 C 289.775 141.266 288.678 141.786 287.045 142.499 C 286.712 142.646 286.362 142.706 285.995 142.679 C 285.555 142.646 285.205 142.806 284.945 143.159 C 284.746 143.432 284.401 143.555 284.075 143.469 C 282.235 142.983 280.458 143.273 278.745 144.339 C 276.952 145.459 275.295 146.686 273.775 148.019 C 273.571 148.197 273.41 148.412 273.305 148.649 C 273.112 149.089 272.815 149.476 272.415 149.809 C 271.142 150.856 270.258 152.283 269.765 154.089 C 269.678 154.423 269.492 154.693 269.205 154.899 C 268.872 155.146 268.712 155.473 268.725 155.879 C 268.785 157.319 267.955 159.009 267.555 160.369 C 266.835 162.829 266.845 165.193 267.585 167.459 C 267.805 168.146 268.122 168.786 268.535 169.379 C 268.948 169.973 269.345 170.606 269.725 171.279 C 269.898 171.593 270.035 171.919 270.135 172.259 C 270.295 172.793 270.658 173.089 271.225 173.149 C 271.518 173.176 271.752 173.306 271.925 173.539 L 276.515 179.589 C 275.502 180.729 274.885 182.556 274.665 185.069 L 273.395 192.599 C 272.182 191.686 271.042 190.916 269.975 190.289 C 268.815 189.599 268.055 188.479 266.925 187.679 C 266.845 187.339 266.635 187.159 266.295 187.139 C 265.955 187.126 265.678 186.983 265.465 186.709 C 264.852 185.936 264.092 185.389 263.185 185.069 C 262.889 184.964 262.619 184.79 262.395 184.559 C 261.868 184.006 261.322 183.446 260.755 182.879 C 260.155 182.273 259.752 181.543 259.545 180.689 C 258.745 177.456 258.515 174.839 258.855 172.839 C 259.402 169.679 259.508 167.746 259.175 167.039 C 258.548 165.706 258.535 164.356 259.135 162.989 C 259.682 161.729 260.032 160.389 260.185 158.969 C 260.218 158.663 260.325 158.383 260.505 158.129 C 261.405 156.849 262.142 155.503 262.715 154.089 C 263.455 152.243 264.128 150.886 264.735 150.019 C 267.475 146.113 270.538 142.516 273.925 139.229 C 275.172 139.089 276.322 138.633 277.375 137.859 C 278.182 137.266 278.978 136.733 279.765 136.259 C 280.585 135.759 281.295 135.136 281.895 134.389 C 282.088 134.149 282.318 133.956 282.585 133.809 L 291.755 128.869 C 295.868 128.296 298.938 128.339 300.965 128.999 C 302.416 129.479 303.937 130.053 305.515 130.719 C 307.855 131.699 310.455 132.729 313.025 132.729 C 314.625 132.723 316.115 132.976 317.495 133.489 C 319.528 134.249 321.688 135.483 323.975 137.189 C 324.422 137.529 324.372 137.753 323.825 137.859 C 322.785 138.069 322.365 138.719 321.185 138.939 C 316.812 139.773 312.682 141.169 308.795 143.129 C 307.789 143.637 307.39 144.867 307.905 145.869 C 309.538 149.049 310.875 152.123 311.915 155.089 C 312.275 156.129 312.405 157.276 312.305 158.529 C 312.065 161.489 311.445 164.326 310.445 167.039 Z"/>
  <path fill="#1f222b" d="M 382.995 183.019 C 383.915 189.233 384.052 194.983 383.405 200.269 C 382.105 212.536 377.735 223.479 370.295 233.099 C 366.142 237.806 361.338 241.786 355.885 245.039 C 343.225 252.479 329.275 255.619 314.875 251.959 C 308.048 250.139 301.645 247.389 295.665 243.709 C 294.685 242.803 293.672 241.979 292.625 241.239 C 291.785 240.639 291.018 239.989 290.325 239.289 C 289.818 238.783 289.272 238.336 288.685 237.949 C 288.212 237.643 287.758 237.286 287.325 236.879 C 283.058 232.879 279.738 228.213 277.365 222.879 C 274.565 216.573 273.165 210.519 273.165 204.719 C 273.165 204.553 273.229 204.392 273.345 204.269 C 273.472 204.129 273.535 203.969 273.535 203.789 C 273.475 199.836 273.428 196.106 273.395 192.599 L 274.665 185.069 C 275.712 184.823 275.998 185.739 275.525 187.819 C 275.445 188.173 275.515 188.489 275.735 188.769 C 276.388 189.603 276.788 190.469 276.935 191.369 C 277.068 192.176 277.328 192.966 277.715 193.739 C 278.128 194.579 278.465 195.469 278.725 196.409 C 278.998 197.429 279.515 198.166 280.275 198.619 C 281.162 199.146 282.098 199.413 283.085 199.419 C 283.421 199.427 283.727 199.224 283.855 198.909 C 285.102 195.949 286.152 192.746 287.005 189.299 C 287.292 188.113 287.982 186.859 289.075 185.539 C 289.328 185.233 289.648 185.103 290.035 185.149 C 291.122 185.283 292.158 185.189 293.145 184.869 C 293.612 184.723 294.082 184.633 294.555 184.599 C 295.195 184.559 295.652 184.279 295.925 183.759 C 296.062 183.496 296.427 183.459 296.625 183.689 L 297.245 184.429 C 297.458 184.676 297.732 184.799 298.065 184.799 C 299.705 184.779 301.415 184.676 303.195 184.489 C 305.335 184.269 306.495 183.049 308.455 182.459 C 308.798 182.351 309.081 182.105 309.235 181.779 C 309.475 181.266 309.845 180.883 310.345 180.629 C 311.045 180.269 311.482 180.016 311.655 179.869 C 312.555 179.089 313.478 178.283 314.425 177.449 C 315.105 176.843 315.778 176.066 316.445 175.119 C 317.072 174.213 317.748 173.346 318.475 172.519 C 318.624 172.35 318.715 172.14 318.735 171.919 C 318.768 171.479 318.998 171.256 319.425 171.249 C 319.772 171.243 320.048 171.099 320.255 170.819 C 320.475 170.513 320.552 170.173 320.485 169.799 C 320.475 169.77 320.437 169.764 320.417 169.787 C 320.416 169.788 320.416 169.789 320.415 169.789 C 320.308 170.103 320.382 170.343 320.635 170.509 C 320.942 170.703 321.155 170.626 321.275 170.279 L 324.085 162.289 C 324.185 162.003 324.362 161.776 324.615 161.609 C 327.275 159.889 329.552 157.473 331.445 154.359 C 331.598 154.106 331.642 153.839 331.575 153.559 C 331.268 152.239 331.065 150.869 330.965 149.449 C 330.878 148.296 330.528 147.313 329.915 146.499 C 329.222 145.579 328.572 144.629 327.965 143.649 C 327.725 143.276 327.398 143.006 326.985 142.839 C 325.898 142.426 325.058 141.746 324.465 140.799 C 323.838 139.793 322.938 139.429 321.765 139.709 C 321.705 139.729 321.682 139.709 321.695 139.649 C 321.715 139.583 321.725 139.549 321.725 139.549 C 321.678 139.583 321.685 139.596 321.745 139.589 C 322.885 139.436 323.928 139.176 324.875 138.809 C 325.855 138.423 326.852 138.203 327.865 138.149 C 331.685 137.929 335.172 138.063 338.325 138.549 C 345.245 139.616 351.992 141.946 358.565 145.539 C 358.695 145.609 358.835 145.779 358.885 145.919 C 358.905 145.979 358.945 146.026 359.005 146.059 C 360.658 146.873 362.442 148.063 364.355 149.629 C 369.888 154.183 374.222 159.576 377.355 165.809 C 380.342 171.756 382.222 177.493 382.995 183.019 Z"/>
  <path fill="#5f88a5" d="M 310.445 167.039 C 307.772 176.393 301.725 182.056 292.305 184.029 C 289.425 184.629 286.152 184.233 282.485 182.839 C 279.832 181.833 277.842 180.749 276.515 179.589 L 271.925 173.539 C 271.752 173.306 271.518 173.176 271.225 173.149 C 270.658 173.089 270.295 172.793 270.135 172.259 C 270.035 171.919 269.898 171.593 269.725 171.279 C 269.345 170.606 268.948 169.973 268.535 169.379 C 268.122 168.786 267.805 168.146 267.585 167.459 C 266.845 165.193 266.835 162.829 267.555 160.369 C 267.955 159.009 268.785 157.319 268.725 155.879 C 268.712 155.473 268.872 155.146 269.205 154.899 C 269.492 154.693 269.678 154.423 269.765 154.089 C 270.258 152.283 271.142 150.856 272.415 149.809 C 272.815 149.476 273.112 149.089 273.305 148.649 C 273.41 148.412 273.571 148.197 273.775 148.019 C 275.295 146.686 276.952 145.459 278.745 144.339 C 280.458 143.273 282.235 142.983 284.075 143.469 C 284.401 143.555 284.746 143.432 284.945 143.159 C 285.205 142.806 285.555 142.646 285.995 142.679 C 286.362 142.706 286.712 142.646 287.045 142.499 C 288.678 141.786 289.775 141.266 290.335 140.939 C 291.115 140.486 291.918 140.216 292.745 140.129 C 292.965 140.103 293.148 140.006 293.295 139.839 C 293.888 139.166 294.685 138.949 295.685 139.189 C 295.938 139.249 296.128 139.393 296.255 139.619 C 296.488 140.046 296.848 140.309 297.335 140.409 C 297.668 140.476 297.962 140.619 298.215 140.839 C 299.722 142.146 301.292 143.199 302.925 143.999 C 303.238 144.153 303.425 144.403 303.485 144.749 C 303.805 146.576 303.295 147.689 301.955 148.089 C 300.936 148.39 300.487 149.581 301.055 150.479 C 301.508 151.193 302.018 151.909 302.585 152.629 C 302.758 152.843 302.982 152.953 303.255 152.959 C 303.868 152.979 304.382 152.766 304.795 152.319 C 305.168 151.919 305.488 151.959 305.755 152.439 C 306.462 153.719 307.295 154.886 308.255 155.939 C 308.935 156.693 309.425 157.733 309.725 159.059 C 310.325 161.726 310.565 164.386 310.445 167.039 Z"/>
  <path fill="#f1f3f4" d="M 277.615 164.599 C 277.295 158.199 279.655 152.729 285.435 149.599 C 287.595 148.429 290.375 148.879 292.615 149.539 C 292.906 149.618 292.996 149.986 292.777 150.203 C 292.764 150.216 292.75 150.228 292.735 150.239 C 287.142 154.439 282.285 159.283 278.165 164.769 C 277.825 165.229 277.642 165.173 277.615 164.599 Z"/>
  <path fill="#1f222b" d="M 307.515 268.729 C 321.822 272.223 335.845 272.073 349.585 268.279 L 357.845 266.519 C 358.965 266.286 359.208 266.643 358.575 267.589 C 357.935 268.549 356.175 269.509 355.025 269.759 C 353.385 270.113 351.795 270.539 350.255 271.039 C 347.035 272.079 343.845 272.469 340.615 273.349 C 338.908 273.809 337.265 274.086 335.685 274.179 C 327.978 274.619 322.745 274.683 319.985 274.369 C 299.672 272.056 282.555 263.486 268.635 248.659 C 266.428 246.313 264.545 243.923 262.985 241.489 C 261.325 238.889 259.718 236.313 258.165 233.759 C 256.505 231.026 255.135 228.103 254.055 224.989 C 253.035 222.036 252.068 219.099 251.155 216.179 C 250.968 215.573 250.752 214.966 250.505 214.359 C 250.015 213.199 250.245 212.049 250.075 210.789 C 249.548 206.796 249.175 202.939 248.955 199.219 C 248.242 187.413 249.938 176.099 254.045 165.279 C 255.005 162.753 256.165 160.313 257.525 157.959 L 258.175 157.529 C 258.562 157.283 258.762 157.389 258.775 157.849 C 258.795 158.269 258.635 158.586 258.295 158.799 C 258.022 158.973 257.822 159.206 257.695 159.499 C 257.102 160.893 256.475 162.289 255.815 163.689 C 255.435 164.509 255.182 165.426 255.055 166.439 C 254.928 167.473 254.538 168.519 253.885 169.579 C 253.725 169.833 253.642 170.113 253.635 170.419 C 253.595 173.599 253.192 176.656 252.425 179.589 C 252.045 181.056 251.888 182.543 251.955 184.049 C 251.995 185.036 251.885 186.006 251.625 186.959 C 251.338 187.979 251.195 189.069 251.195 190.229 C 251.188 195.209 251.388 198.983 251.795 201.549 C 252.215 204.169 252.588 206.879 252.915 209.679 C 253.722 216.653 255.655 223.373 258.715 229.839 C 261.282 235.273 265.098 240.673 270.165 246.039 C 280.438 256.913 292.888 264.476 307.515 268.729 Z"/>
  <path fill="#2c4d61" d="M 403.785 196.219 L 402.985 204.039 C 402.892 207.546 402.135 210.866 400.715 213.999 C 400.572 214.318 400.335 214.587 400.035 214.769 C 399.502 215.089 399.302 215.563 399.435 216.189 C 399.495 216.443 399.395 216.579 399.135 216.599 L 398.875 216.609 C 398.815 216.616 398.788 216.589 398.795 216.529 C 398.875 214.999 398.495 214.359 397.185 213.449 C 396.598 213.043 396.115 212.519 395.735 211.879 C 395.582 211.619 395.385 211.403 395.145 211.229 L 393.615 210.109 C 393.422 209.968 393.293 209.76 393.255 209.529 L 392.145 202.919 C 392.098 202.633 391.952 202.409 391.705 202.249 L 391.225 201.939 C 391.005 201.797 390.842 201.585 390.765 201.339 C 390.618 200.886 390.332 200.529 389.905 200.269 C 389.618 200.096 389.222 200.036 388.715 200.089 C 386.942 200.269 385.172 200.329 383.405 200.269 C 384.052 194.983 383.915 189.233 382.995 183.019 C 385.568 183.006 388.012 183.766 390.325 185.299 C 391.992 186.406 393.618 187.859 395.205 189.659 C 396.912 191.586 398.708 193.486 400.595 195.359 C 401.402 196.159 401.928 197.193 402.175 198.459 C 402.208 198.626 402.305 198.693 402.465 198.659 L 403.355 198.489 C 403.535 198.456 403.605 198.349 403.565 198.169 C 403.358 197.269 403.432 196.619 403.785 196.219 Z"/>
  <path fill="#337093" d="M 402.985 204.039 C 403.065 204.153 403.145 204.263 403.225 204.369 C 402.965 207.876 402.218 211.323 400.985 214.709 C 400.695 215.489 400.895 216.399 400.445 217.079 C 400.118 217.553 399.865 218.066 399.685 218.619 C 398.092 223.453 395.828 227.853 392.895 231.819 C 392.788 231.966 392.722 232.133 392.695 232.319 C 392.682 232.433 392.682 232.546 392.695 232.659 C 392.728 232.933 392.672 233.183 392.525 233.409 C 391.165 235.503 389.835 237.386 388.535 239.059 C 387.502 240.386 385.965 241.833 383.925 243.399 C 383.178 243.973 382.535 244.583 381.995 245.229 C 381.485 245.849 380.625 246.989 379.985 247.339 C 379.878 247.393 379.768 247.416 379.655 247.409 C 379.328 247.389 379.058 247.499 378.845 247.739 L 376.635 250.149 C 376.388 250.416 376.092 250.619 375.745 250.759 C 374.735 251.159 374.505 251.269 373.675 252.089 C 372.455 253.303 370.955 254.343 369.175 255.209 C 368.875 255.356 368.618 255.559 368.405 255.819 C 367.275 257.199 365.675 257.629 364.345 258.749 C 361.258 261.343 358.218 263.266 355.225 264.519 C 351.545 266.059 347.948 267.169 344.435 267.849 C 340.435 268.629 336.238 269.316 331.845 269.909 C 330.158 270.129 326.645 270.036 321.305 269.629 C 322.685 269.623 324.055 269.316 325.415 268.709 C 325.715 268.576 325.885 268.346 325.925 268.019 C 326.078 266.893 325.715 265.949 324.835 265.189 C 324.222 264.656 323.392 264.329 322.345 264.209 C 317.618 263.669 312.992 262.823 308.465 261.669 C 308.158 261.589 307.932 261.409 307.785 261.129 C 307.558 260.689 307.648 260.279 308.055 259.899 C 308.282 259.686 308.348 259.433 308.255 259.139 C 308.062 258.493 308.215 257.996 308.715 257.649 C 309.615 257.016 310.292 256.316 310.745 255.549 C 311.498 254.289 312.022 253.539 312.315 253.299 C 313.162 252.613 314.015 252.166 314.875 251.959 C 329.275 255.619 343.225 252.479 355.885 245.039 L 354.615 247.149 C 354.422 247.463 354.142 247.619 353.775 247.619 C 353.355 247.619 352.992 247.763 352.685 248.049 C 351.803 248.893 350.643 249.38 349.425 249.419 C 348.692 249.446 348.068 249.743 347.555 250.309 C 347.288 250.603 346.958 250.739 346.565 250.719 C 346.065 250.686 345.658 250.866 345.345 251.259 C 345.165 251.486 344.988 251.483 344.815 251.249 C 344.735 251.143 344.608 251.116 344.435 251.169 C 344.162 251.263 343.968 251.439 343.855 251.699 C 342.548 254.699 340.902 257.616 338.915 260.449 C 338.755 260.683 338.705 260.939 338.765 261.219 C 338.818 261.473 338.812 261.723 338.745 261.969 C 338.718 262.083 338.652 262.116 338.545 262.069 C 338.392 262.009 338.302 262.053 338.275 262.199 C 338.228 262.426 338.318 262.509 338.545 262.449 C 339.555 262.199 340.585 262.249 341.565 261.949 C 345.812 260.649 349.585 259.279 352.885 257.839 C 354.738 257.033 356.662 256.156 358.655 255.209 C 360.535 254.316 362.262 253.256 363.835 252.029 C 366.082 250.283 368.215 248.553 370.235 246.839 C 373.855 243.753 376.855 240.223 379.235 236.249 C 379.415 235.949 379.505 235.633 379.505 235.299 C 379.498 234.946 379.402 234.609 379.215 234.289 C 379.009 233.937 378.591 233.771 378.205 233.889 C 377.078 234.216 376.358 233.799 376.045 232.639 C 376.022 232.561 375.925 232.534 375.865 232.589 L 375.625 232.829 C 375.325 233.129 375.032 233.123 374.745 232.809 C 373.765 231.763 372.282 231.859 370.295 233.099 C 377.735 223.479 382.105 212.536 383.405 200.269 C 385.172 200.329 386.942 200.269 388.715 200.089 C 389.222 200.036 389.618 200.096 389.905 200.269 C 390.332 200.529 390.618 200.886 390.765 201.339 C 390.842 201.585 391.005 201.797 391.225 201.939 L 391.705 202.249 C 391.952 202.409 392.098 202.633 392.145 202.919 L 393.255 209.529 C 393.293 209.76 393.422 209.968 393.615 210.109 L 395.145 211.229 C 395.385 211.403 395.582 211.619 395.735 211.879 C 396.115 212.519 396.598 213.043 397.185 213.449 C 398.495 214.359 398.875 214.999 398.795 216.529 C 398.788 216.589 398.815 216.616 398.875 216.609 L 399.135 216.599 C 399.395 216.579 399.495 216.443 399.435 216.189 C 399.302 215.563 399.502 215.089 400.035 214.769 C 400.335 214.587 400.572 214.318 400.715 213.999 C 402.135 210.866 402.892 207.546 402.985 204.039 Z"/>
  <path fill="#5f88a5" d="M 399.555 222.999 L 395.205 232.299 C 387.838 245.086 378.215 254.833 366.335 261.539 C 362.428 263.746 356.845 265.993 349.585 268.279 C 335.845 272.073 321.822 272.223 307.515 268.729 L 307.775 268.089 C 307.868 267.876 308.032 267.763 308.265 267.749 C 308.358 267.743 308.458 267.739 308.565 267.739 L 321.305 269.629 C 326.645 270.036 330.158 270.129 331.845 269.909 C 336.238 269.316 340.435 268.629 344.435 267.849 C 347.948 267.169 351.545 266.059 355.225 264.519 C 358.218 263.266 361.258 261.343 364.345 258.749 C 365.675 257.629 367.275 257.199 368.405 255.819 C 368.618 255.559 368.875 255.356 369.175 255.209 C 370.955 254.343 372.455 253.303 373.675 252.089 C 374.505 251.269 374.735 251.159 375.745 250.759 C 376.092 250.619 376.388 250.416 376.635 250.149 L 378.845 247.739 C 379.058 247.499 379.328 247.389 379.655 247.409 C 379.768 247.416 379.878 247.393 379.985 247.339 C 380.625 246.989 381.485 245.849 381.995 245.229 C 382.535 244.583 383.178 243.973 383.925 243.399 C 385.965 241.833 387.502 240.386 388.535 239.059 C 389.835 237.386 391.165 235.503 392.525 233.409 C 392.672 233.183 392.728 232.933 392.695 232.659 C 392.682 232.546 392.682 232.433 392.695 232.319 C 392.722 232.133 392.788 231.966 392.895 231.819 C 395.828 227.853 398.092 223.453 399.685 218.619 C 399.865 218.066 400.118 217.553 400.445 217.079 C 400.895 216.399 400.695 215.489 400.985 214.709 C 402.218 211.323 402.965 207.876 403.225 204.369 C 404.032 202.743 404.368 203.173 404.235 205.659 C 404.208 206.133 404.132 206.629 404.005 207.149 C 402.698 212.463 401.215 217.746 399.555 222.999 Z"/>
  <path fill="#5f88a5" d="M 355.885 245.039 C 361.338 241.786 366.142 237.806 370.295 233.099 C 372.282 231.859 373.765 231.763 374.745 232.809 C 375.032 233.123 375.325 233.129 375.625 232.829 L 375.865 232.589 C 375.925 232.534 376.022 232.561 376.045 232.639 C 376.358 233.799 377.078 234.216 378.205 233.889 C 378.591 233.771 379.009 233.937 379.215 234.289 C 379.402 234.609 379.498 234.946 379.505 235.299 C 379.505 235.633 379.415 235.949 379.235 236.249 C 376.855 240.223 373.855 243.753 370.235 246.839 C 368.215 248.553 366.082 250.283 363.835 252.029 C 362.262 253.256 360.535 254.316 358.655 255.209 C 356.662 256.156 354.738 257.033 352.885 257.839 C 349.585 259.279 345.812 260.649 341.565 261.949 C 340.585 262.249 339.555 262.199 338.545 262.449 C 338.318 262.509 338.228 262.426 338.275 262.199 C 338.302 262.053 338.392 262.009 338.545 262.069 C 338.652 262.116 338.718 262.083 338.745 261.969 C 338.812 261.723 338.818 261.473 338.765 261.219 C 338.705 260.939 338.755 260.683 338.915 260.449 C 340.902 257.616 342.548 254.699 343.855 251.699 C 343.968 251.439 344.162 251.263 344.435 251.169 C 344.608 251.116 344.735 251.143 344.815 251.249 C 344.988 251.483 345.165 251.486 345.345 251.259 C 345.658 250.866 346.065 250.686 346.565 250.719 C 346.958 250.739 347.288 250.603 347.555 250.309 C 348.068 249.743 348.692 249.446 349.425 249.419 C 350.643 249.38 351.803 248.893 352.685 248.049 C 352.992 247.763 353.355 247.619 353.775 247.619 C 354.142 247.619 354.422 247.463 354.615 247.149 L 355.885 245.039 Z"/>
  <path fill="#2c4d61" d="M 295.665 243.709 C 301.645 247.389 308.048 250.139 314.875 251.959 C 314.015 252.166 313.162 252.613 312.315 253.299 C 312.022 253.539 311.498 254.289 310.745 255.549 C 310.292 256.316 309.615 257.016 308.715 257.649 C 308.215 257.996 308.062 258.493 308.255 259.139 C 308.348 259.433 308.282 259.686 308.055 259.899 C 307.648 260.279 307.558 260.689 307.785 261.129 C 307.932 261.409 308.158 261.589 308.465 261.669 C 312.992 262.823 317.618 263.669 322.345 264.209 C 323.392 264.329 324.222 264.656 324.835 265.189 C 325.715 265.949 326.078 266.893 325.925 268.019 C 325.885 268.346 325.715 268.576 325.415 268.709 C 324.055 269.316 322.685 269.623 321.305 269.629 L 308.565 267.739 C 303.938 266.719 299.542 265.146 295.375 263.019 C 295.068 262.859 295.082 262.739 295.415 262.659 C 295.635 262.613 295.818 262.646 295.965 262.759 C 296.245 262.979 296.535 262.989 296.835 262.789 C 297.148 262.583 297.305 262.286 297.305 261.899 C 297.312 261.506 297.505 261.253 297.885 261.139 L 299.375 260.709 C 299.688 260.623 299.788 260.426 299.675 260.119 C 299.375 259.319 298.822 258.743 298.015 258.389 C 294.928 257.043 291.772 255.343 288.545 253.289 C 287.685 252.749 287.295 251.569 287.565 250.659 C 287.712 250.166 287.985 250.079 288.385 250.399 C 288.812 250.739 289.252 250.743 289.705 250.409 C 290.112 250.109 290.532 249.786 290.965 249.439 C 291.238 249.219 291.412 248.936 291.485 248.589 C 291.638 247.909 291.848 247.259 292.115 246.639 C 292.368 246.059 292.308 245.513 291.935 244.999 C 291.722 244.706 291.708 244.409 291.895 244.109 C 292.062 243.829 292.288 243.699 292.575 243.719 C 293.002 243.746 293.065 243.609 292.765 243.309 C 292.605 243.149 292.612 243.006 292.785 242.879 C 292.985 242.733 293.198 242.706 293.425 242.799 L 295.665 243.709 Z"/>
  <path fill="#fbc74b" d="M 119.374 372.125 C 116.06 383.383 104.071 389.772 92.595 386.395 C 81.119 383.017 74.503 371.152 77.816 359.894 C 81.13 348.635 93.119 342.246 104.595 345.624 C 116.071 349.001 122.687 360.866 119.374 372.125 Z"/>
  <path fill="#7ec0e1" d="M 550.746 385.347 C 540.137 389.125 528.421 383.435 524.576 372.639 C 520.732 361.843 526.216 350.029 536.824 346.252 C 547.433 342.474 559.149 348.164 562.994 358.959 C 566.838 369.755 561.354 381.57 550.746 385.347 L 550.746 385.347 Z"/>
</svg>